<?xml version="1.0" encoding="utf-8"?>
<!-- Generator: Adobe Illustrator 25.0.1, SVG Export Plug-In . SVG Version: 6.00 Build 0)  -->
<svg version="1.0" id="katman_1" xmlns="http://www.w3.org/2000/svg" xmlns:xlink="http://www.w3.org/1999/xlink" x="0px" y="0px"
	 viewBox="0 0 800 600" style="enable-background:new 0 0 800 600;" xml:space="preserve">
<style type="text/css">
	.st0{stroke:#FFFFFF;stroke-width:13.1109;}
</style>
<path d="M434.6,312.4h11.2c-1.8,7.8-5.6,14-11.3,18.6c-5.7,4.6-13.1,6.8-22,6.8c-12.2,0-21.8-4-28.6-12.1
	c-6.8-8.1-10.2-18.6-10.2-31.4s3.5-23.4,10.4-31.4c6.9-8.1,16.5-12.1,28.6-12.1c8.5,0,15.5,2.1,21.2,6.4c5.7,4.2,9.3,9.9,11.1,17.2
	h-11.2c-3.3-9.3-10.3-13.9-21.1-13.9c-9.3,0-16.3,3.3-21.1,9.8c-4.8,6.5-7.2,14.6-7.2,24.1c0,9.7,2.4,17.7,7.1,24.3
	c4.8,6.4,11.8,9.7,21.1,9.7c5.8,0,10.6-1.4,14.4-4.1C430.6,321.2,433.2,317.3,434.6,312.4z M460.4,276.9h10v35.6
	c0,10.9,5,16.4,15.1,16.4c5.1,0,9.3-1.9,12.6-5.8c3.4-3.8,5.1-8.5,5.1-14v-32.2h10v59.4h-9.7v-6.4h-2.6c-1.7,2.4-4.2,4.3-7.3,5.8
	c-3.1,1.4-6.7,2.1-10.6,2.1c-7.2,0-12.8-2-16.7-6.1c-3.9-4.2-5.9-9.9-5.9-17.1V276.9z M566.3,276.9v9.4h-4.9c-6,0-10.6,1.8-14,5.3
	c-3.3,3.5-4.9,8.5-4.9,15v29.7h-10v-59.4h9.7v7.1h2.6c3.8-4.7,9.5-7.1,17.2-7.1H566.3z M596.6,336.3l-19.7-59.4h10.4l16.6,49.9h4.8
	l16-49.9h10.5l-19.9,59.4H596.6z M698,303.1v3.4h-45.2c0.2,7.1,1.8,12.7,5.1,16.7c3.2,3.9,7.9,5.9,13.9,5.9c8.2,0,13.2-3.1,15.1-9.2
	h10.1c-1,5.3-3.7,9.7-8.1,13c-4.3,3.3-10,4.9-17.1,4.9c-9,0-16.1-2.9-21.2-8.8c-5.1-5.9-7.7-13.5-7.7-23c0-9.3,2.6-16.7,7.7-22.3
	c5.1-5.6,12.1-8.4,21-8.4c8.4,0,14.9,2.7,19.4,8C695.5,288.7,697.8,295.2,698,303.1z M671.3,284.1c-5.1,0-9.2,1.3-12.2,4
	c-3.1,2.6-4.9,5.9-5.7,10h34.3c-0.3-4-1.9-7.3-4.8-10C679.9,285.5,676.1,284.1,671.3,284.1z"/>
<path class="st0" d="M187.7,300.2c-0.9-17.3-7.5-34.9-13.9-49.3c-1.5-3.4-2-14.1,11.1-11.8c16.2,5.7,58.3,22,60.6,42.4
	c0.9,8.2-4.9,14-19.8,16C210.8,299.4,194.6,299.9,187.7,300.2z M187.7,300.2c0.9,17.3,0,32-4.5,48.8 M183.2,348.9
	c-4.3,22.6-17.7,34.7-28.2,37.7c-53.8,15.3-56-65.8-50.2-109c3.5-26.3,16.1-52,31.5-61.6c6.4-4,20.3-9.2,42.2-2.4
	c26.7,8.4,53.8,22.7,60.9,26.9c7.1,4.2,23.9,17.1,29.3,24.8c10.4,14.9,14.6,22.4,9.6,41.2c-4.9,18.9-23.7,21.7-29.7,22.7
	C222.5,334,208.4,340.3,183.2,348.9z"/>
<path class="st0" d="M155.5,324.8c0.2,7.7-1.3,14.4-3.6,19c-2.4,4.8-4.9,5.8-6.1,5.9c-1.2,0-3.7-0.8-6.4-5.5
	c-2.6-4.4-4.5-11-4.7-18.7c-0.2-7.7,1.3-14.4,3.6-19c2.4-4.8,4.9-5.8,6.1-5.9c1.2,0,3.7,0.8,6.4,5.5
	C153.3,310.5,155.2,317.1,155.5,324.8z"/>
</svg>
